<svg width="294" height="246" viewBox="0 0 294 246" fill="none" xmlns="http://www.w3.org/2000/svg">
<path d="M7.65009 123.3C7.85009 128.6 10.9501 131.2 17.1501 131.2C22.7501 131.2 26.0501 128.5 26.0501 124.6C26.0501 122.5 25.2501 121 23.7501 120.2C22.3501 119.4 21.6501 119.2 20.3501 118.8L13.8501 117.4C12.0501 117.1 11.0501 116.9 8.9501 115.9C6.0501 114.6 4.0501 112.3 3.8501 108C3.8501 105 5.0501 102.6 7.3501 100.8C9.7501 99 12.8501 98 16.6501 98C24.7501 98 29.3501 102 29.5501 108.4H24.9501C24.7501 103.9 21.5501 101.7 16.3501 101.7C11.3501 101.7 8.55009 103.9 8.55009 107.5C8.55009 109.1 9.25009 110.4 10.0501 111.2C10.4501 111.5 11.0501 111.9 11.6501 112.2C13.0501 112.8 13.6501 112.9 14.8501 113.2L21.3501 114.6C27.5501 115.9 30.6501 119.2 30.6501 124.4C30.6501 131.1 25.3501 135 17.0501 135C7.95009 135 3.0501 130.5 2.8501 123.4H7.65009V123.3Z" fill="#20201F"/>
<path d="M38.0499 111.9C40.3499 109.4 43.3499 108.2 47.0499 108.2C50.7499 108.2 53.6499 109.4 55.9499 111.9C58.2499 114.4 59.3499 117.6 59.3499 121.5C59.3499 125.4 58.2499 128.6 55.9499 131.1C53.7499 133.6 50.7499 134.8 47.0499 134.8C43.3499 134.8 40.3499 133.6 38.0499 131.2C35.7499 128.7 34.6499 125.5 34.6499 121.6C34.6499 117.6 35.8499 114.4 38.0499 111.9ZM47.0499 131C51.9499 131 54.9499 127.4 54.9499 121.4C54.9499 115.6 52.0499 111.9 47.0499 111.9C42.1499 111.9 39.0499 115.5 39.0499 121.4C39.0499 127.4 41.9499 131 47.0499 131Z" fill="#20201F"/>
<path d="M86.4502 125.6C86.2502 128.4 85.0502 130.6 82.9502 132.3C80.8502 134 78.2502 134.8 75.1502 134.8C71.4502 134.8 68.4502 133.6 66.2502 131.2C64.0502 128.8 62.9502 125.5 62.9502 121.6C62.9502 117.6 64.0502 114.3 66.2502 111.9C68.5502 109.4 71.5502 108.2 75.3502 108.2C78.3502 108.2 80.8502 109 82.8502 110.7C84.8502 112.3 86.0502 114.4 86.2502 117.1H81.9502C81.2502 113.8 78.5502 112 75.1502 112C70.0502 112 67.2502 115.8 67.2502 121.6C67.2502 127.7 70.2502 131.1 75.1502 131.1C78.9502 131.1 81.6502 128.9 82.0502 125.6H86.4502Z" fill="#20201F"/>
<path d="M91.4502 104.3V98.7H95.6502V104.3H91.4502ZM91.4502 134.3V108.6H95.6502V134.3H91.4502Z" fill="#20201F"/>
<path d="M111.15 119H117.95V117.1C117.95 113.4 115.95 111.5 112.05 111.5C108.55 111.5 106.15 113.3 106.05 116.1H101.95C102.15 113.7 103.15 111.8 105.05 110.3C106.95 108.8 109.35 108.1 112.25 108.1C118.65 108.1 122.15 111.5 122.15 117.4V129.1C122.15 130.1 122.25 131.1 123.75 131.1C124.05 131.1 124.45 131.1 124.65 131V134.3C123.95 134.5 123.25 134.6 122.45 134.6C119.55 134.6 118.15 133.1 118.15 130.1H117.85C116.75 132.9 113.35 134.8 109.35 134.8C104.25 134.8 100.75 131.7 100.75 127.3C100.85 121.9 104.75 119 111.15 119ZM110.35 131.3C114.95 131.3 118.05 128.1 118.05 123.5V122.1H111.55C107.35 122.1 105.25 123.8 105.25 126.8C105.25 129.6 107.25 131.3 110.35 131.3Z" fill="#20201F"/>
<path d="M129.35 134.3V98.2H133.55V134.3H129.35Z" fill="#20201F"/>
<path d="M20.1499 149.7C23.9499 149.7 26.9499 150.7 29.2499 152.8C31.4499 154.9 32.5499 157.7 32.5499 161.1C32.5499 164.6 31.4499 167.4 29.1499 169.5C26.9499 171.6 23.9499 172.6 20.1499 172.6H10.1499V185.7H5.6499V149.8H20.1499V149.7ZM19.5499 168.6C24.9499 168.6 27.7499 165.8 27.7499 161.2C27.7499 158.5 26.6499 156.5 25.3499 155.6C24.7499 155.1 23.9499 154.7 23.0499 154.5C21.3499 154 20.5499 154 19.5499 154H10.1499V168.7H19.5499V168.6Z" fill="#20201F"/>
<path d="M36.6499 185.6V159.9H40.3499L40.8499 165.1H41.1499C42.5499 161.4 45.3499 159.5 49.4499 159.5V163.3C43.6499 163.4 40.8499 166.8 40.8499 173.7V185.6H36.6499Z" fill="#20201F"/>
<path d="M54.3502 163.1C56.6502 160.6 59.6502 159.4 63.3502 159.4C67.0502 159.4 69.9502 160.6 72.2502 163.1C74.5502 165.6 75.6502 168.8 75.6502 172.7C75.6502 176.6 74.5502 179.8 72.2502 182.3C70.0502 184.8 67.0502 186 63.3502 186C59.6502 186 56.6502 184.8 54.3502 182.4C52.0502 179.9 50.9502 176.7 50.9502 172.8C50.9502 168.9 52.0502 165.7 54.3502 163.1ZM63.2502 182.3C68.1502 182.3 71.1502 178.7 71.1502 172.7C71.1502 166.9 68.2502 163.2 63.2502 163.2C58.3502 163.2 55.2502 166.8 55.2502 172.7C55.2502 178.6 58.1502 182.3 63.2502 182.3Z" fill="#20201F"/>
<path d="M82.3501 183.2V182.9C80.8501 182.5 79.7501 181 79.7501 179.4C79.7501 177.4 81.0501 175.8 83.0501 175.2V174.9C80.5501 173.4 79.3501 171.1 79.3501 168C79.3501 165.4 80.2501 163.4 82.0501 161.8C83.8501 160.2 86.1501 159.4 89.0501 159.4C91.0501 159.4 92.6501 159.7 93.9501 160.5C94.9501 157.7 97.7501 156 101.25 156V159.5C98.8501 159.5 97.0501 160.5 96.4501 162.1C98.0501 163.7 98.8501 165.7 98.8501 168.1C98.8501 173.1 95.0501 176.5 89.3501 176.5C88.1501 176.5 86.9501 176.4 85.8501 176.1C84.3501 176.3 83.6501 177.1 83.6501 178.5C83.6501 180 84.7501 180.7 87.0501 180.7H93.8501C98.7501 180.7 101.55 183.1 101.55 187.1C101.55 192 96.9501 194.6 89.1501 194.6C81.8501 194.6 78.3501 192.2 78.3501 188.3C78.4501 185.8 79.9501 183.9 82.3501 183.2ZM89.4501 191.3C94.7501 191.3 97.3501 189.9 97.3501 187.2C97.3501 185.2 96.0501 184.2 93.4501 184.2H86.5501C83.7501 184.2 82.3501 185.3 82.3501 187.5C82.3501 190 84.6501 191.3 89.4501 191.3ZM89.1501 173.4C92.6501 173.4 94.6501 171.3 94.6501 168C94.6501 164.6 92.4501 162.5 89.1501 162.5C85.7501 162.5 83.6501 164.7 83.6501 168C83.6501 171.4 85.8501 173.4 89.1501 173.4Z" fill="#20201F"/>
<path d="M105.75 185.6V159.9H109.45L109.95 165.1H110.25C111.65 161.4 114.45 159.5 118.55 159.5V163.3C112.75 163.4 109.95 166.8 109.95 173.7V185.6H105.75Z" fill="#20201F"/>
<path d="M130.55 170.3H137.35V168.4C137.35 164.7 135.35 162.8 131.45 162.8C127.95 162.8 125.55 164.6 125.45 167.4H121.35C121.55 165 122.55 163.1 124.45 161.6C126.35 160.1 128.75 159.4 131.65 159.4C138.05 159.4 141.55 162.8 141.55 168.7V180.4C141.55 181.4 141.65 182.4 143.15 182.4C143.45 182.4 143.85 182.4 144.05 182.3V185.6C143.35 185.8 142.65 185.9 141.85 185.9C138.95 185.9 137.55 184.4 137.55 181.4H137.25C136.15 184.2 132.75 186.1 128.75 186.1C123.65 186.1 120.15 183 120.15 178.6C120.35 173.2 124.25 170.3 130.55 170.3ZM129.75 182.5C134.35 182.5 137.45 179.3 137.45 174.7V173.3H130.95C126.75 173.3 124.65 175 124.65 178C124.65 180.9 126.65 182.5 129.75 182.5Z" fill="#20201F"/>
<path d="M148.85 185.6V159.9H152.55L153.05 164.7H153.45C155.05 161.2 157.65 159.4 161.35 159.4C164.95 159.4 167.65 161.7 168.85 165H169.25C170.75 161.4 173.95 159.4 177.65 159.4C183.05 159.4 186.25 163.3 186.25 169.8V185.6H182.05V170.2C182.05 165.5 180.15 163.2 176.45 163.2C171.95 163.2 169.75 166.6 169.75 172V185.6H165.55V170.2C165.55 165.5 163.65 163.2 159.95 163.2C155.75 163.2 153.15 166.7 153.15 171.9V185.6H148.85Z" fill="#20201F"/>
<path d="M5.6499 236.8V201H11.6499L22.9499 226.9H23.2499L34.5499 201H40.5499V236.9H36.0499V217.5L36.4499 207H36.1499L23.0499 236.2L9.94991 206.9H9.6499L10.0499 217.5V236.9H5.6499V236.8Z" fill="#20201F"/>
<path d="M56.4503 221.5H63.2503V219.6C63.2503 215.9 61.2503 214 57.3503 214C53.8503 214 51.4503 215.8 51.3503 218.6H47.2503C47.4503 216.2 48.4503 214.3 50.3503 212.8C52.2503 211.3 54.6503 210.6 57.5503 210.6C63.9503 210.6 67.4503 214 67.4503 219.9V231.6C67.4503 232.6 67.5503 233.6 69.0503 233.6C69.3503 233.6 69.7503 233.6 69.9503 233.5V236.8C69.2503 237 68.5503 237.1 67.7503 237.1C64.8503 237.1 63.4503 235.6 63.4503 232.6H63.1503C62.0503 235.4 58.6503 237.3 54.6503 237.3C49.5503 237.3 46.0503 234.2 46.0503 229.8C46.1503 224.4 50.0503 221.5 56.4503 221.5ZM55.5503 233.8C60.1503 233.8 63.2503 230.6 63.2503 226V224.6H56.7503C52.5503 224.6 50.4503 226.3 50.4503 229.3C50.5503 232.1 52.4503 233.8 55.5503 233.8Z" fill="#20201F"/>
<path d="M74.6499 236.8V211.1H78.3499L78.8499 215.9H79.1499C80.7499 212.6 83.9499 210.6 87.8499 210.6C93.4499 210.6 96.7499 214.6 96.7499 221V236.8H92.4499V221.4C92.4499 216.7 90.4499 214.4 86.3499 214.4C81.8499 214.4 78.7499 218 78.7499 223.4V236.8H74.6499Z" fill="#20201F"/>
<path d="M112.05 221.5H118.85V219.6C118.85 215.9 116.85 214 112.95 214C109.45 214 107.05 215.8 106.95 218.6H102.85C103.05 216.2 104.05 214.3 105.95 212.8C107.85 211.3 110.25 210.6 113.15 210.6C119.55 210.6 123.05 214 123.05 219.9V231.6C123.05 232.6 123.15 233.6 124.65 233.6C124.95 233.6 125.35 233.6 125.55 233.5V236.8C124.85 237 124.15 237.1 123.35 237.1C120.45 237.1 119.05 235.6 119.05 232.6H118.75C117.65 235.4 114.25 237.3 110.25 237.3C105.15 237.3 101.65 234.2 101.65 229.8C101.75 224.4 105.65 221.5 112.05 221.5ZM111.15 233.8C115.75 233.8 118.85 230.6 118.85 226V224.6H112.35C108.15 224.6 106.05 226.3 106.05 229.3C106.15 232.1 108.05 233.8 111.15 233.8Z" fill="#20201F"/>
<path d="M132.55 234.4V234.1C131.05 233.7 129.95 232.2 129.95 230.6C129.95 228.6 131.25 227 133.25 226.4V226.1C130.75 224.6 129.55 222.3 129.55 219.2C129.55 216.6 130.45 214.6 132.25 213C134.05 211.4 136.35 210.6 139.25 210.6C141.25 210.6 142.85 210.9 144.15 211.7C145.15 208.9 147.95 207.2 151.45 207.2V210.7C149.05 210.7 147.25 211.7 146.65 213.3C148.25 214.9 149.05 216.9 149.05 219.3C149.05 224.3 145.25 227.7 139.55 227.7C138.35 227.7 137.15 227.6 136.05 227.3C134.55 227.5 133.85 228.3 133.85 229.7C133.85 231.2 134.95 231.9 137.25 231.9H144.05C148.95 231.9 151.75 234.3 151.75 238.3C151.75 243.2 147.15 245.8 139.35 245.8C132.05 245.8 128.55 243.4 128.55 239.5C128.65 237 130.15 235.2 132.55 234.4ZM139.65 242.5C144.95 242.5 147.55 241.1 147.55 238.4C147.55 236.4 146.25 235.4 143.65 235.4H136.75C133.95 235.4 132.55 236.5 132.55 238.7C132.55 241.3 134.85 242.5 139.65 242.5ZM139.35 224.6C142.85 224.6 144.85 222.5 144.85 219.2C144.85 215.8 142.65 213.7 139.35 213.7C135.95 213.7 133.85 215.9 133.85 219.2C133.85 222.6 135.95 224.6 139.35 224.6Z" fill="#20201F"/>
<path d="M156.75 233.7C154.55 231.3 153.45 228 153.45 224C153.45 220 154.55 216.7 156.75 214.3C158.95 211.8 161.95 210.6 165.55 210.6C172.65 210.6 176.95 215.1 176.95 222.2C176.95 223.2 176.95 224.1 176.85 224.9H157.85C157.85 230.6 160.85 233.9 165.75 233.9C169.45 233.9 172.25 232 172.85 229.2H177.15C176.75 231.7 175.45 233.6 173.35 235.2C171.25 236.7 168.75 237.5 165.65 237.5C161.95 237.3 158.95 236.1 156.75 233.7ZM172.65 221.7C172.65 216.8 170.05 214.1 165.45 214.1C160.95 214.1 157.95 217.1 157.75 221.7H172.65Z" fill="#20201F"/>
<path d="M182.25 236.8V211.1H185.95L186.45 215.9H186.85C188.45 212.4 191.05 210.6 194.75 210.6C198.35 210.6 201.05 212.9 202.25 216.2H202.65C204.15 212.6 207.35 210.6 211.05 210.6C216.45 210.6 219.65 214.5 219.65 221V236.8H215.35V221.4C215.35 216.7 213.45 214.4 209.75 214.4C205.25 214.4 203.05 217.8 203.05 223.2V236.8H198.85V221.4C198.85 216.7 196.95 214.4 193.25 214.4C189.05 214.4 186.45 217.9 186.45 223.1V236.8H182.25Z" fill="#20201F"/>
<path d="M228.05 233.7C225.85 231.3 224.75 228 224.75 224C224.75 220 225.85 216.7 228.05 214.3C230.25 211.8 233.25 210.6 236.85 210.6C243.95 210.6 248.25 215.1 248.25 222.2C248.25 223.2 248.25 224.1 248.15 224.9H229.15C229.15 230.6 232.15 233.9 237.05 233.9C240.75 233.9 243.55 232 244.15 229.2H248.45C248.05 231.7 246.75 233.6 244.65 235.2C242.55 236.7 240.05 237.5 236.95 237.5C233.25 237.3 230.35 236.1 228.05 233.7ZM243.95 221.7C243.95 216.8 241.35 214.1 236.75 214.1C232.25 214.1 229.25 217.1 229.05 221.7H243.95Z" fill="#20201F"/>
<path d="M253.65 236.8V211.1H257.35L257.85 215.9H258.15C259.75 212.6 262.95 210.6 266.85 210.6C272.45 210.6 275.75 214.6 275.75 221V236.8H271.45V221.4C271.45 216.7 269.45 214.4 265.35 214.4C260.85 214.4 257.75 218 257.75 223.4V236.8H253.65Z" fill="#20201F"/>
<path d="M278.85 211.1H283.25V203.3L287.45 201.7V211.1H293.25V214.6H287.45V229.4C287.45 231.4 287.75 233.2 291.05 233.4C291.95 233.4 292.65 233.3 293.25 233.1V236.7C292.35 236.9 291.25 237.1 290.05 237.1C285.55 237.1 283.25 234.6 283.25 229.8V214.6H278.85V211.1Z" fill="#20201F"/>
<path d="M39.9499 79.1C18.2499 79.1 0.649902 61.5 0.649902 39.8C0.649902 18.1 18.2499 0.5 39.9499 0.5C61.6499 0.5 79.2499 18.1 79.2499 39.8C79.2499 61.5 61.6499 79.1 39.9499 79.1Z" fill="#FF8241"/>
<path d="M39.8495 31C34.5495 31 30.2495 26.7 30.2495 21.4C30.2495 16.1 34.5495 11.8 39.8495 11.8C45.1495 11.8 49.4495 16.1 49.4495 21.4C49.4495 26.7 45.1495 31 39.8495 31ZM39.8495 15.2C36.4495 15.2 33.6495 18 33.6495 21.4C33.6495 24.8 36.4495 27.6 39.8495 27.6C43.2495 27.6 46.0495 24.8 46.0495 21.4C46.0495 18 43.2495 15.2 39.8495 15.2Z" fill="white"/>
<path d="M23.0497 40.1C18.8497 40.1 15.4497 36.7 15.4497 32.5C15.4497 28.3 18.8497 24.9 23.0497 24.9C27.2497 24.9 30.6497 28.3 30.6497 32.5C30.6497 36.7 27.2497 40.1 23.0497 40.1ZM23.0497 28.3C20.7497 28.3 18.8497 30.2 18.8497 32.5C18.8497 34.8 20.7497 36.7 23.0497 36.7C25.3497 36.7 27.2497 34.8 27.2497 32.5C27.2497 30.2 25.3497 28.3 23.0497 28.3Z" fill="white"/>
<path d="M56.8495 40.1C52.6495 40.1 49.2495 36.7 49.2495 32.5C49.2495 28.3 52.6495 24.9 56.8495 24.9C61.0495 24.9 64.4495 28.3 64.4495 32.5C64.4495 36.7 61.0495 40.1 56.8495 40.1ZM56.8495 28.3C54.5495 28.3 52.6495 30.2 52.6495 32.5C52.6495 34.8 54.5495 36.7 56.8495 36.7C59.1495 36.7 61.0495 34.8 61.0495 32.5C61.0495 30.2 59.1495 28.3 56.8495 28.3Z" fill="white"/>
<path d="M39.8495 67.9C26.5495 67.9 15.7495 57.1 15.7495 43.8V42.1H17.4495C20.7495 42.1 23.8495 42.7 26.8495 44L25.5495 47.1C23.5495 46.3 21.4495 45.7 19.2495 45.5C20.1495 56.1 29.0495 64.4 39.9495 64.4V67.9H39.8495Z" fill="white"/>
<path d="M39.8496 67.9V64.5C50.6496 64.5 59.5496 56.2 60.5496 45.6C58.3496 45.8 56.2496 46.3 54.3496 47.1L53.0496 43.9C56.0496 42.7 59.1496 42 62.4496 42H64.1496V43.7C64.0496 57.1 53.1496 67.9 39.8496 67.9Z" fill="white"/>
<path d="M39.8497 67.9C37.4497 67.9 35.1497 67 33.4497 65.2C28.4497 60.2 26.6497 52.9 28.8497 46.2C29.9497 42.6 32.4497 39.4 35.8497 36.9L39.9497 33.9L44.0497 36.9C47.4497 39.4 49.8497 42.6 51.0497 46.2C53.1497 52.9 51.4497 60.2 46.4497 65.2C44.5497 67 42.3497 67.9 39.8497 67.9ZM39.8497 38.2L37.7497 39.7C34.9497 41.8 32.9497 44.4 32.0497 47.3C30.3497 52.8 31.7497 58.8 35.8497 62.8C36.9497 63.9 38.3497 64.5 39.8497 64.5C41.3497 64.5 42.7497 63.9 43.8497 62.8C47.9497 58.7 49.3497 52.8 47.6497 47.3C46.7497 44.4 44.7497 41.8 41.9497 39.7L39.8497 38.2Z" fill="white"/>
</svg>
